<svg xmlns="http://www.w3.org/2000/svg" xmlns:xlink="http://www.w3.org/1999/xlink" version="1.1" id="Layer_1" x="0px" y="0px" width="100%" viewBox="0 0 710 706" enable-background="new 0 0 710 706" xml:space="preserve" transform="matrix(1, 0, 0, 1, 0, 0)">
  <defs>
    <!-- Gradient definition: dark blue top-right to main blue bottom-left -->
    <linearGradient id="veloxGradient" x1="100%" y1="0%" x2="0%" y2="100%">
      <stop offset="0%" style="stop-color:#1E3A8A;stop-opacity:1" />
      <stop offset="100%" style="stop-color:#2563EB;stop-opacity:1" />
    </linearGradient>
  </defs>
  <path fill="#282828" opacity="0.000000" stroke="none" d=" M352.000000,707.000000   C234.666672,707.000000 117.833336,707.000000 1.000000,707.000000   C1.000000,471.666656 1.000000,236.333328 1.000000,1.000000   C237.666672,1.000000 474.333344,1.000000 711.000000,1.000000   C711.000000,236.333328 711.000000,471.666656 711.000000,707.000000   C591.500000,707.000000 472.000000,707.000000 352.000000,707.000000  M440.694672,303.987610   C440.951630,310.364227 438.590790,313.510101 432.424133,312.792664   C421.775726,311.553833 410.724915,310.821777 400.757050,307.294098   C379.348145,299.717438 358.485321,290.583557 337.464478,281.927979   C306.907379,269.345764 276.404358,256.632111 245.885361,243.957489   C221.197723,233.704651 196.529541,223.404785 171.821411,213.201645   C169.852310,212.388489 167.638870,212.166977 165.538971,211.670532   C165.275101,212.067719 165.011230,212.464890 164.747345,212.862076   C168.577271,220.562836 172.165894,228.395294 176.282822,235.939407   C188.149628,257.684875 200.295700,279.277771 212.207611,300.998840   C224.674362,323.731628 237.101562,346.487396 249.352646,369.336823   C261.849396,392.644409 274.000854,416.137207 286.516571,439.434479   C294.067780,453.490631 301.506989,467.653748 309.978973,481.152222   C315.773499,490.384674 322.855682,498.912537 330.092255,507.111053   C339.873260,518.192139 354.261658,521.294800 367.112579,511.708160   C375.736938,505.274597 383.134460,497.779541 388.590027,488.400696   C406.063477,458.361267 423.597504,428.356934 441.163177,398.371307   C455.445160,373.991089 469.943298,349.736542 484.098267,325.283081   C502.421936,293.627960 520.515137,261.839233 538.666565,230.084625   C541.255920,225.554672 543.615417,220.893280 546.332886,215.823441   C544.343689,215.395691 543.262024,215.069977 542.157410,214.940781   C535.418396,214.152740 528.671021,213.435547 521.932251,212.645447   C508.625366,211.085251 495.324066,209.477432 482.017029,207.918732   C471.175598,206.648865 460.350983,205.165085 449.479370,204.241043   C435.980560,203.093689 422.544952,203.497849 409.797455,208.899948   C403.175049,211.706360 399.138062,216.835358 400.063171,224.112976   C400.865295,230.423386 401.972748,237.134064 404.878143,242.649643   C411.608887,255.427139 419.548676,267.565155 426.920929,280.008270   C431.487122,287.715240 435.911499,295.506226 440.694672,303.987610  z"/>
  <path fill="url(#veloxGradient)" opacity="1.000000" stroke="none" d=" M440.547119,303.623535   C435.911499,295.506226 431.487122,287.715240 426.920929,280.008270   C419.548676,267.565155 411.608887,255.427139 404.878143,242.649643   C401.972748,237.134064 400.865295,230.423386 400.063171,224.112976   C399.138062,216.835358 403.175049,211.706360 409.797455,208.899948   C422.544952,203.497849 435.980560,203.093689 449.479370,204.241043   C460.350983,205.165085 471.175598,206.648865 482.017029,207.918732   C495.324066,209.477432 508.625366,211.085251 521.932251,212.645447   C528.671021,213.435547 535.418396,214.152740 542.157410,214.940781   C543.262024,215.069977 544.343689,215.395691 546.332886,215.823441   C543.615417,220.893280 541.255920,225.554672 538.666565,230.084625   C520.515137,261.839233 502.421936,293.627960 484.098267,325.283081   C469.943298,349.736542 455.445160,373.991089 441.163177,398.371307   C423.597504,428.356934 406.063477,458.361267 388.590027,488.400696   C383.134460,497.779541 375.736938,505.274597 367.112579,511.708160   C354.261658,521.294800 339.873260,518.192139 330.092255,507.111053   C322.855682,498.912537 315.773499,490.384674 309.978973,481.152222   C301.506989,467.653748 294.067780,453.490631 286.516571,439.434479   C274.000854,416.137207 261.849396,392.644409 249.352646,369.336823   C237.101562,346.487396 224.674362,323.731628 212.207611,300.998840   C200.295700,279.277771 188.149628,257.684875 176.282822,235.939407   C172.165894,228.395294 168.577271,220.562836 164.747345,212.862076   C165.011230,212.464890 165.275101,212.067719 165.538971,211.670532   C167.638870,212.166977 169.852310,212.388489 171.821411,213.201645   C196.529541,223.404785 221.197723,233.704651 245.885361,243.957489   C276.404358,256.632111 306.907379,269.345764 337.464478,281.927979   C358.485321,290.583557 379.348145,299.717438 400.757050,307.294098   C410.724915,310.821777 421.775726,311.553833 432.424133,312.792664   C438.590790,313.510101 440.951630,310.364227 440.547119,303.623535  z"/>
</svg>
