<?xml version="1.0" encoding="UTF-8" standalone="no"?> <svg xmlns="http://www.w3.org/2000/svg" xmlns:xlink="http://www.w3.org/1999/xlink" xmlns:serif="http://www.serif.com/" width="100%" height="100%" viewBox="0 0 8610 2802" xml:space="preserve" style="fill-rule:evenodd;clip-rule:evenodd;stroke-linejoin:round;stroke-miterlimit:1.41421;"><g id="Ebene-1" serif:id="Ebene 1"><path id="path48-6-5-6" d="M2247.11,257.263l193.336,0l309.712,1205.66l4.153,0l284.786,-1205.66l197.489,0l268.149,1186.9l4.154,0l334.656,-1186.9l168.392,0l-424.031,1502.88l-201.668,0l-266.072,-1182.79l-4.153,0l-280.609,1182.79l-199.571,0l-388.723,-1502.88" style="fill:#231f20;fill-rule:nonzero;"></path><path id="path50-4-7-2" d="M4217.71,658.451l199.565,0l0,1101.69l-199.565,0l0,-1101.69Zm0,-401.188l199.565,0l0,199.54l-199.565,0l0,-199.54" style="fill:#231f20;fill-rule:nonzero;"></path><rect id="path52-9-6-6" x="4818.47" y="157.48" width="199.543" height="1602.66" style="fill:#231f20;fill-rule:nonzero;"></rect><path id="path54-3-5-2" d="M5379.61,1537.74c97.73,49.912 226.616,97.681 336.757,97.681c95.685,0 203.77,-51.922 203.77,-162.112c0,-232.847 -534.223,-162.187 -534.223,-532.17c0,-207.872 153.805,-307.654 380.348,-307.654c89.449,0 160.129,14.585 270.276,33.275l0,166.289c-87.318,-27.026 -176.699,-49.869 -268.2,-49.869c-87.273,0 -195.387,37.41 -195.387,141.346c0,203.694 546.775,170.443 546.775,525.94c0,230.696 -207.908,334.607 -413.742,334.607c-105.987,0 -226.566,-31.155 -326.374,-62.379l0,-184.954" style="fill:#231f20;fill-rule:nonzero;"></path><path id="path56-3-6-4" d="M7231.77,837.201c-93.509,-31.18 -191.271,-54.023 -290.973,-54.023c-239.121,0 -336.757,216.16 -336.757,428.21c0,224.465 105.956,424.031 353.333,424.031c99.826,0 199.59,-22.843 286.907,-68.609l0,160.035c-106.019,31.224 -216.228,58.226 -326.375,58.226c-451.033,0 -525.902,-394.934 -525.902,-575.785c0,-247.359 112.211,-575.803 525.902,-575.803c106.019,0 212.038,14.585 313.865,35.352l0,168.366" style="fill:#231f20;fill-rule:nonzero;"></path><path id="path58-2-4-4" d="M7549.82,157.48l199.527,0l0,500.971l-12.447,205.771l12.447,0c91.445,-133.033 228.675,-230.739 394.99,-230.739c195.399,0 307.611,153.849 307.611,318.062l0,808.6l-199.591,0l0,-783.681c0,-106.013 -62.297,-168.366 -153.805,-168.366c-153.805,0 -272.27,116.426 -349.205,239.076l0,712.971l-199.527,0l0,-1602.66" style="fill:#231f20;fill-rule:nonzero;"></path><path d="M2700.94,2370.16l9.988,0c24.045,0 46.333,-1.621 66.864,-4.863c20.531,-3.242 38.75,-9.185 54.657,-17.83c18.866,-10.446 32.923,-24.765 42.171,-42.955c9.249,-18.191 13.873,-38.453 13.873,-60.786c0,-34.22 -10.451,-59.705 -31.352,-76.455c-20.901,-16.75 -49.477,-25.125 -85.73,-25.125l-153.705,0l3.33,25.935l23.305,3.242l3.329,48.629l0,235.038l-3.329,48.628l-23.305,3.242l-3.33,25.936l120.411,0l-3.329,-25.936l-33.848,-3.242l0,-133.458Zm0,-25.935l0,-169.66c18.496,-4.322 34.588,-6.484 48.275,-6.484c27.745,0 48.461,6.124 62.148,18.371c13.687,12.247 20.531,31.519 20.531,57.814c0,15.489 -2.682,30.168 -8.046,44.036c-5.364,13.868 -13.595,25.305 -24.693,34.31c-11.837,9.366 -24.23,15.309 -37.177,17.831c-12.948,2.521 -29.594,3.782 -49.94,3.782l-11.098,0Z" style="fill:#231f20;fill-rule:nonzero;"></path><path d="M3077.16,2239.94c-44.761,0 -79.349,13.778 -103.764,41.334c-24.415,27.556 -36.623,63.667 -36.623,108.334c0,44.666 12.208,80.777 36.623,108.333c24.415,27.556 59.003,41.334 103.764,41.334c45.131,0 79.812,-13.778 104.042,-41.334c24.23,-27.556 36.345,-63.667 36.345,-108.333c0,-44.667 -12.115,-80.778 -36.345,-108.334c-24.23,-27.556 -58.911,-41.334 -104.042,-41.334Zm0,25.935c14.797,0 27.56,3.872 38.287,11.617c10.728,7.744 19.422,17.92 26.08,30.528c6.659,12.607 11.561,26.025 14.705,40.253c3.144,14.229 4.716,28.007 4.716,41.335c0,13.327 -1.572,27.105 -4.716,41.334c-3.144,14.228 -7.954,27.556 -14.427,39.983c-6.474,12.428 -15.167,22.604 -26.08,30.528c-10.913,7.925 -23.768,11.887 -38.565,11.887c-14.797,0 -27.559,-3.872 -38.287,-11.617c-10.728,-7.744 -19.421,-17.92 -26.08,-30.528c-6.659,-12.607 -11.56,-26.025 -14.705,-40.253c-3.144,-14.229 -4.716,-28.007 -4.716,-41.334c0,-13.328 1.572,-27.106 4.716,-41.335c3.145,-14.228 8.046,-27.646 14.705,-40.253c6.659,-12.608 15.352,-22.784 26.08,-30.528c10.728,-7.745 23.49,-11.617 38.287,-11.617Z" style="fill:#231f20;fill-rule:nonzero;"></path><path d="M3369.03,2536.04l27.19,0l83.788,-218.829l78.794,218.829l26.635,0l69.361,-205.321l22.751,-55.112l16.647,-3.242l3.329,-25.936l-79.349,0l3.329,25.936l23.305,3.242l-61.038,182.087l-76.019,-211.265l-28.855,0l-81.014,210.724l-54.379,-181.546l23.306,-3.242l3.329,-25.936l-103.21,0l3.33,25.936l16.646,3.242l16.092,42.144l66.032,218.289Z" style="fill:#231f20;fill-rule:nonzero;"></path><path d="M3982.74,2383.13l0,-5.944c0,-20.172 -1.48,-37.552 -4.439,-52.14c-2.959,-14.589 -9.063,-28.547 -18.311,-41.875c-19.606,-28.817 -48.091,-43.225 -85.453,-43.225c-20.346,0 -38.75,3.872 -55.212,11.616c-16.462,7.745 -30.334,18.461 -41.617,32.149c-11.282,13.688 -19.791,29.358 -25.525,47.008c-5.733,17.65 -8.6,36.201 -8.6,55.653c0,21.252 3.329,41.244 9.988,59.975c6.658,18.731 16.369,35.03 29.131,48.899c12.763,13.868 28.3,24.674 46.611,32.419c18.312,7.744 38.565,11.616 60.761,11.616c29.594,0 60.483,-6.483 92.666,-19.451l0,-38.903c-12.577,7.204 -26.635,12.788 -42.171,16.75c-15.537,3.962 -30.704,5.943 -45.501,5.943c-17.017,0 -33.016,-4.772 -47.998,-14.318c-14.982,-9.546 -26.358,-21.883 -34.126,-37.012c-4.439,-9.725 -7.584,-20.262 -9.433,-31.608c-1.85,-11.347 -2.96,-23.864 -3.33,-37.552l182.559,0Zm-179.229,-25.935c0.37,-10.086 1.849,-20.442 4.439,-31.069c2.589,-10.626 6.566,-20.532 11.93,-29.717c5.364,-9.186 12.208,-16.57 20.531,-22.153c8.323,-5.583 18.034,-8.375 29.132,-8.375c12.207,0 22.103,2.611 29.686,7.834c7.584,5.224 13.318,12.158 17.202,20.803c3.884,8.645 6.474,18.1 7.768,28.366c1.295,10.266 1.942,21.703 1.942,34.311l-122.63,0Z" style="fill:#231f20;fill-rule:nonzero;"></path><path d="M4256.3,2243.18c-4.439,-2.162 -10.358,-3.242 -17.757,-3.242c-19.606,0 -38.102,5.583 -55.489,16.75c-17.386,11.166 -30.888,25.575 -40.507,43.225l-3.329,0l3.329,-13.508l0,-43.225l-83.233,3.241l3.329,25.936l23.306,3.242l3.329,45.386l0,133.999l-3.329,48.628l-23.306,3.242l-3.329,25.936l119.856,0l-3.329,-25.936l-29.964,-3.242l-3.33,-48.628l0,-130.757c13.318,-13.328 25.803,-23.143 37.455,-29.447c11.653,-6.304 25.988,-9.456 43.004,-9.456l3.33,25.936l26.634,3.241l3.33,-71.321Z" style="fill:#231f20;fill-rule:nonzero;"></path><path d="M4568.7,2343.68l194.766,0l0,111.305l-3.329,48.628l-23.306,3.242l-3.329,25.936l113.198,0l-3.33,-25.936l-23.305,-3.242l-3.33,-48.628l0,-235.038l3.33,-48.629l23.305,-3.242l3.33,-25.935l-113.198,0l3.329,25.935l23.306,3.242l3.329,48.629l0,97.797l-194.766,0l0,-97.797l3.329,-48.629l23.305,-3.242l3.33,-25.935l-113.198,0l3.33,25.935l23.305,3.242l3.329,48.629l0,235.038l-3.329,48.628l-23.305,3.242l-3.33,25.936l113.198,0l-3.33,-25.936l-23.305,-3.242l-3.329,-48.628l0,-111.305Z" style="fill:#231f20;fill-rule:nonzero;"></path><path d="M5057,2239.94c-44.761,0 -79.349,13.778 -103.765,41.334c-24.415,27.556 -36.622,63.667 -36.622,108.334c0,44.666 12.207,80.777 36.622,108.333c24.416,27.556 59.004,41.334 103.765,41.334c45.131,0 79.811,-13.778 104.042,-41.334c24.23,-27.556 36.345,-63.667 36.345,-108.333c0,-44.667 -12.115,-80.778 -36.345,-108.334c-24.231,-27.556 -58.911,-41.334 -104.042,-41.334Zm0,25.935c14.797,0 27.559,3.872 38.287,11.617c10.728,7.744 19.421,17.92 26.08,30.528c6.659,12.607 11.56,26.025 14.705,40.253c3.144,14.229 4.716,28.007 4.716,41.335c0,13.327 -1.572,27.105 -4.716,41.334c-3.145,14.228 -7.954,27.556 -14.428,39.983c-6.473,12.428 -15.167,22.604 -26.079,30.528c-10.913,7.925 -23.768,11.887 -38.565,11.887c-14.797,0 -27.56,-3.872 -38.288,-11.617c-10.728,-7.744 -19.421,-17.92 -26.079,-30.528c-6.659,-12.607 -11.561,-26.025 -14.705,-40.253c-3.144,-14.229 -4.717,-28.007 -4.717,-41.334c0,-13.328 1.573,-27.106 4.717,-41.335c3.144,-14.228 8.046,-27.646 14.705,-40.253c6.658,-12.608 15.351,-22.784 26.079,-30.528c10.728,-7.745 23.491,-11.617 38.288,-11.617Z" style="fill:#231f20;fill-rule:nonzero;"></path><path d="M5275.63,2518.2c13.688,6.484 29.779,11.617 48.276,15.399c18.496,3.782 35.698,5.673 51.604,5.673c14.058,0 27.745,-1.711 41.062,-5.133c13.318,-3.422 25.433,-8.735 36.346,-15.939c10.912,-7.204 19.606,-16.3 26.079,-27.286c6.474,-10.986 9.711,-23.684 9.711,-38.092c0,-11.887 -2.22,-22.243 -6.659,-31.069c-4.439,-8.825 -10.358,-16.209 -17.756,-22.153c-7.399,-5.943 -15.26,-10.986 -23.583,-15.128c-8.323,-4.143 -19.329,-8.736 -33.016,-13.779l-4.994,-2.161c-12.208,-4.683 -23.675,-9.365 -34.403,-14.048c-10.728,-4.683 -18.866,-9.185 -24.415,-13.508c-11.098,-8.645 -16.647,-19.451 -16.647,-32.419c0,-12.607 5.087,-22.873 15.26,-30.798c10.173,-7.925 21.733,-11.887 34.68,-11.887c9.988,0 19.791,1.711 29.409,5.133c9.618,3.422 18.867,8.195 27.745,14.318l3.329,29.177l26.635,3.242l3.329,-61.596c-28.854,-10.806 -59.188,-16.209 -91.002,-16.209c-11.837,0 -23.675,1.711 -35.513,5.133c-11.837,3.422 -22.565,8.465 -32.183,15.129c-9.618,6.663 -17.294,14.948 -23.028,24.854c-5.734,9.906 -8.601,20.982 -8.601,33.23c0,13.688 2.589,25.575 7.768,35.661c5.179,10.086 12.208,18.46 21.086,25.124c8.878,6.664 18.127,12.248 27.745,16.75c9.618,4.503 22.38,9.816 38.287,15.94l2.22,1.08c2.959,1.081 4.809,1.801 5.549,2.161c18.126,6.484 31.906,13.238 41.339,20.262c9.433,7.024 14.15,17.561 14.15,31.609c0,14.408 -5.734,25.755 -17.202,34.04c-11.468,8.285 -24.97,12.427 -40.507,12.427c-12.208,0 -23.953,-2.251 -35.235,-6.754c-11.283,-4.502 -22.474,-10.896 -33.571,-19.181l-3.33,-29.717l-26.634,-3.242l-3.33,63.757Z" style="fill:#231f20;fill-rule:nonzero;"></path><path d="M5594.69,2436.62c0,19.091 1.017,34.04 3.052,44.846c2.034,10.807 6.566,20.533 13.595,29.178c8.138,9.365 18.403,16.479 30.796,21.342c12.393,4.863 25.432,7.294 39.12,7.294c15.537,0 29.409,-2.701 41.616,-8.104l0,-29.177c-6.658,2.881 -12.3,4.952 -16.924,6.213c-4.624,1.261 -9.895,1.891 -15.814,1.891c-7.399,0 -14.242,-1.981 -20.531,-5.943c-6.289,-3.963 -11.098,-9.186 -14.427,-15.669c-2.959,-6.124 -4.902,-12.698 -5.826,-19.722c-0.925,-7.024 -1.388,-15.399 -1.388,-25.125l0,-168.038l74.91,0l0,-29.178l-74.91,0l0,-65.378l-53.269,12.968l0,52.41l-37.178,0l0,29.178l37.178,0l0,161.014Z" style="fill:#231f20;fill-rule:nonzero;"></path><path d="M5868.25,2320.99l3.329,-77.805l-86.563,3.241l3.329,25.936l23.306,3.242l3.329,45.386l0,133.999l-3.329,48.628l-23.306,3.242l-3.329,25.936l113.198,0l-3.33,-25.936l-23.305,-3.242l-3.329,-48.628l0,-133.999Zm-53.27,-126.974l53.27,0l0,-51.871l-53.27,0l0,51.871Z" style="fill:#231f20;fill-rule:nonzero;"></path><path d="M6055.25,2286.41l0,-43.225l-83.233,3.241l3.329,25.936l23.306,3.242l3.329,45.386l0,133.999l-3.329,48.628l-23.306,3.242l-3.329,25.936l113.197,0l-3.329,-25.936l-23.305,-3.242l-3.33,-48.628l0,-130.757c16.277,-14.769 30.797,-26.025 43.559,-33.77c12.763,-7.744 27.282,-11.616 43.559,-11.616c11.098,0 19.976,1.711 26.635,5.133c6.659,3.422 11.375,8.104 14.15,14.048c2.774,5.943 4.531,12.427 5.271,19.451c0.74,7.024 1.11,16.48 1.11,28.367l0,109.144l-3.33,48.628l-23.305,3.242l-3.329,25.936l113.197,0l-3.329,-25.936l-23.305,-3.242l-3.33,-48.628l0,-117.249c0,-15.489 -1.295,-28.817 -3.884,-39.983c-2.59,-11.167 -7.769,-21.433 -15.537,-30.798c-14.797,-18.011 -35.698,-27.016 -62.703,-27.016c-19.606,0 -39.397,5.763 -59.373,17.29c-19.976,11.527 -35.328,25.755 -46.056,42.685l-3.329,0l3.329,-13.508Z" style="fill:#231f20;fill-rule:nonzero;"></path><path d="M6486.95,2526.31c21.825,0 36.437,1.621 43.836,4.863c5.919,2.881 10.635,6.844 14.15,11.887c3.514,5.043 5.271,10.626 5.271,16.749c0,10.447 -2.774,19.452 -8.323,27.016c-5.549,7.565 -12.948,13.598 -22.196,18.101c-9.248,4.503 -19.051,7.745 -29.409,9.726c-10.358,1.981 -20.531,2.971 -30.519,2.971c-8.508,0 -17.202,-0.63 -26.08,-1.891c-8.878,-1.26 -17.294,-3.422 -25.247,-6.483c-7.954,-3.062 -14.52,-7.475 -19.699,-13.238c-5.179,-5.764 -7.768,-13.148 -7.768,-22.153c0,-9.366 2.497,-18.101 7.491,-26.206c4.994,-8.104 11.56,-15.219 19.698,-21.342l78.795,0Zm-43.282,-38.903c-12.947,0 -22.75,-1.081 -29.409,-3.242c-6.659,-2.161 -9.988,-7.024 -9.988,-14.588c0,-5.764 2.312,-11.437 6.936,-17.02c4.624,-5.584 9.896,-10.357 15.815,-14.319c7.398,2.161 17.201,3.242 29.409,3.242c16.646,0 31.813,-2.161 45.501,-6.484c13.687,-4.322 25.71,-11.527 36.068,-21.612c9.248,-9.366 16.646,-20.623 22.195,-33.77c5.549,-13.148 8.323,-26.026 8.323,-38.633c0,-12.607 -2.219,-24.855 -6.658,-36.742c-4.439,-11.887 -10.728,-22.513 -18.866,-31.878l58.263,9.725l16.647,-38.902l-103.21,7.564c-16.277,-7.204 -34.403,-10.806 -54.379,-10.806c-16.647,0 -32.091,2.161 -46.333,6.483c-14.243,4.323 -26.543,11.527 -36.901,21.613c-9.248,9.005 -16.461,20.082 -21.64,33.23c-5.179,13.147 -7.769,26.565 -7.769,40.253c0,19.812 5.364,38.093 16.092,54.843c10.728,16.749 25.34,28.726 43.836,35.931c0,0 -1.109,0.54 -3.329,1.621c-15.167,7.924 -27.005,15.399 -35.513,22.423c-8.508,7.024 -12.762,16.119 -12.762,27.286c0,9.005 2.774,16.66 8.323,22.963c5.549,6.304 12.947,11.437 22.196,15.399c-16.277,6.124 -30.149,14.319 -41.617,24.585c-11.468,10.266 -17.202,22.423 -17.202,36.471c0,12.247 4.902,22.423 14.705,30.528c9.803,8.105 21.918,14.318 36.345,18.641c14.427,4.323 29.039,7.294 43.836,8.915c14.798,1.621 28.115,2.432 39.953,2.432c15.536,0 31.351,-1.621 47.443,-4.863c16.091,-3.242 31.073,-8.375 44.946,-15.399c13.872,-7.024 25.155,-16.39 33.848,-28.097c8.693,-11.707 13.04,-25.845 13.04,-42.415c0,-14.768 -3.145,-26.655 -9.433,-35.661c-6.289,-9.005 -15.075,-15.579 -26.358,-19.721c-11.282,-4.143 -23.767,-6.844 -37.455,-8.105c-13.687,-1.261 -30.888,-1.891 -51.604,-1.891l-33.294,0Zm12.208,-224.772c11.098,0 20.531,2.161 28.299,6.484c7.769,4.322 13.872,10.176 18.312,17.56c4.439,7.384 7.676,15.579 9.71,24.585c2.035,9.005 3.052,18.731 3.052,29.177c0,10.806 -1.017,20.892 -3.052,30.257c-2.034,9.366 -5.826,17.831 -11.375,25.395c-9.988,15.129 -23.86,22.694 -41.617,22.694c-10.728,0 -19.791,-2.252 -27.189,-6.754c-7.399,-4.503 -13.41,-10.446 -18.034,-17.831c-4.624,-7.384 -7.954,-15.579 -9.988,-24.584c-2.035,-9.005 -3.052,-18.371 -3.052,-28.097c0,-9.365 0.925,-18.641 2.774,-27.826c1.85,-9.185 4.902,-17.56 9.156,-25.125c4.254,-7.564 9.988,-13.778 17.201,-18.641c7.214,-4.863 15.815,-7.294 25.803,-7.294Z" style="fill:#231f20;fill-rule:nonzero;"></path><path d="M7111.76,2506.86c-21.086,5.404 -40.322,8.105 -57.709,8.105c-24.785,0 -46.981,-4.502 -66.587,-13.508c-19.606,-9.005 -35.975,-21.522 -49.108,-37.552c-13.132,-16.029 -23.027,-34.58 -29.686,-55.653c-6.659,-21.072 -9.988,-43.315 -9.988,-66.729c0,-22.333 2.589,-44.216 7.768,-65.648c5.179,-21.433 13.318,-41.064 24.415,-58.895c11.098,-17.83 25.525,-32.059 43.282,-42.685c17.756,-10.626 38.842,-15.939 63.257,-15.939c16.647,0 32.831,2.521 48.553,7.564c15.722,5.043 32.091,12.247 49.108,21.613l3.329,29.717l26.635,3.242l3.329,-68.62c-47.72,-12.968 -93.036,-19.451 -135.948,-19.451c-29.964,0 -57.153,4.682 -81.569,14.048c-24.415,9.365 -45.315,24.314 -62.702,44.846c-15.167,18.011 -26.635,39.984 -34.403,65.919c-7.769,25.935 -11.653,51.87 -11.653,77.806c0,29.537 4.162,57.003 12.485,82.398c8.323,25.395 20.716,47.458 37.178,66.189c16.461,18.731 36.9,33.229 61.315,43.495c24.415,10.266 52.16,15.399 83.234,15.399c20.345,0 40.876,-1.711 61.592,-5.133c20.716,-3.422 43.097,-8.194 67.142,-14.318l0,-59.975l3.329,-55.653l23.306,-3.242l3.329,-25.935l-117.082,0l3.33,25.935l30.519,3.242l0,99.418Z" style="fill:#231f20;fill-rule:nonzero;"></path><path d="M7341.48,2286.41l0,-43.225l-83.234,3.241l3.33,25.936l23.305,3.242l3.329,45.386l0,133.999l-3.329,48.628l-23.305,3.242l-3.33,25.936l113.198,0l-3.329,-25.936l-23.306,-3.242l-3.329,-48.628l0,-130.757c13.317,-13.688 27.282,-24.674 41.894,-32.959c14.612,-8.285 30.057,-12.427 46.333,-12.427c9.249,0 16.647,1.711 22.196,5.133c5.549,3.422 9.526,8.014 11.93,13.778c2.405,5.763 3.884,11.887 4.439,18.37c0.555,6.484 0.833,14.589 0.833,24.315l0,114.547l-3.33,48.628l-23.305,3.242l-3.33,25.936l113.198,0l-3.329,-25.936l-23.306,-3.242l-3.329,-48.628l0,-130.757c12.947,-13.688 26.727,-24.674 41.339,-32.959c14.612,-8.285 30.057,-12.427 46.334,-12.427c9.618,0 17.201,1.711 22.75,5.133c5.549,3.422 9.526,8.014 11.93,13.778c2.405,5.763 3.884,11.887 4.439,18.37c0.555,6.484 0.833,14.589 0.833,24.315l0,114.547l-3.33,48.628l-23.305,3.242l-3.329,25.936l113.197,0l-3.329,-25.936l-23.306,-3.242l-3.329,-48.628l0,-123.733c0,-15.129 -1.572,-28.456 -4.717,-39.983c-3.144,-11.527 -9.34,-21.793 -18.588,-30.798c-7.029,-6.844 -15.445,-11.977 -25.248,-15.399c-9.803,-3.422 -19.883,-5.133 -30.241,-5.133c-20.716,0 -39.582,5.403 -56.599,16.209c-17.017,10.807 -32.184,25.395 -45.501,43.766l-3.329,0c-1.85,-18.371 -9.896,-32.959 -24.138,-43.766c-14.242,-10.806 -31.166,-16.209 -50.773,-16.209c-20.715,0 -39.582,5.403 -56.598,16.209c-17.017,10.807 -32.369,25.395 -46.056,43.766l-3.329,0l3.329,-13.508Z" style="fill:#231f20;fill-rule:nonzero;"></path><path d="M7866.41,2325.85c10.727,-14.048 23.397,-25.395 38.01,-34.04c14.612,-8.645 30.241,-12.967 46.888,-12.967c14.427,0 26.357,3.512 35.79,10.536c9.433,7.024 16.739,16.209 21.918,27.556c5.179,11.347 8.694,23.504 10.543,36.471c1.85,12.968 2.775,26.116 2.775,39.443c0,12.608 -1.203,25.305 -3.607,38.093c-2.405,12.787 -6.381,24.674 -11.93,35.661c-5.549,10.986 -13.133,19.901 -22.751,26.745c-9.618,6.844 -21.271,10.266 -34.958,10.266c-14.797,0 -29.409,-2.881 -43.836,-8.645c-14.427,-5.763 -27.375,-13.688 -38.842,-23.774l0,-145.345Zm-2.775,174.523l2.775,0c11.097,12.247 24.507,21.792 40.229,28.636c15.722,6.844 31.906,10.266 48.553,10.266c21.456,0 40.137,-4.502 56.044,-13.507c15.907,-9.006 28.854,-21.073 38.842,-36.202c9.988,-15.129 17.294,-31.969 21.918,-50.519c4.624,-18.551 6.936,-37.552 6.936,-57.004c0,-18.01 -1.942,-35.301 -5.826,-51.87c-3.884,-16.57 -10.173,-31.699 -18.866,-45.387c-8.693,-13.688 -20.069,-24.584 -34.126,-32.689c-14.057,-8.105 -30.704,-12.157 -49.94,-12.157c-20.716,0 -40.23,5.493 -58.541,16.479c-18.311,10.987 -33.386,25.485 -45.223,43.496l-3.33,0l3.33,-47.008l0,-62.136l3.329,-77.806l-86.563,3.242l3.329,25.935l23.306,3.242l3.329,45.387l0,267.457l-3.329,77.806l47.165,0l6.659,-35.661Z" style="fill:#231f20;fill-rule:nonzero;"></path><path d="M8235.97,2343.68l194.766,0l0,111.305l-3.329,48.628l-23.305,3.242l-3.33,25.936l113.198,0l-3.329,-25.936l-23.306,-3.242l-3.329,-48.628l0,-235.038l3.329,-48.629l23.306,-3.242l3.329,-25.935l-113.198,0l3.33,25.935l23.305,3.242l3.329,48.629l0,97.797l-194.766,0l0,-97.797l3.33,-48.629l23.305,-3.242l3.329,-25.935l-113.197,0l3.329,25.935l23.305,3.242l3.33,48.629l0,235.038l-3.33,48.628l-23.305,3.242l-3.329,25.936l113.197,0l-3.329,-25.936l-23.305,-3.242l-3.33,-48.628l0,-111.305Z" style="fill:#231f20;fill-rule:nonzero;"></path><path id="path16-9-3-7-0-0-5" d="M1188.59,256.85l688.511,0.057l416.46,1616.74l-496.868,757.758" style="fill:#5a8fd2;fill-rule:nonzero;"></path><path id="path16-9-3-6-5-0-7-3" d="M157.48,256.85l688.511,0.057l416.459,1616.74l-496.867,757.758" style="fill:#0f8036;fill-opacity:0.984314;fill-rule:nonzero;"></path></g></svg> 